<svg xmlns="http://www.w3.org/2000/svg" fill="none" viewBox="0 0 701 246" height="246" width="701">
<g clip-path="url(#clip0)">
<path fill="black" d="M88.2 2.1H62.2L62 3C63.2 3.1 64.4 3.3 65.6 3.7C67.6 4.2 69.2 5.2 69.2 7.5C69.2 11.1 66.9 15.8 63.2 20.9L35.2 60.3H34.7L24.8 19C23.8 14.9 22.8 12.1 22.8 9.6C22.8 7.1 24.5 4.8 26.9 4.2C28.5 3.6 30.2 3.3 31.9 3L32.1 2.2H0.2L0 3C3.8 3.6 8.4 3.6 10.8 12L24.4 63L18.8 87.6C17.1 94.4 15.3 100.5 13.5 103.6C12 106.1 9.7 107.9 6.9 108.7C5.2 109.2 3.5 109.6 1.8 109.7L1.6 110.5H35.8L36 109.7C34.2 109.4 32.4 108.9 30.7 108C28.6 107.1 27.3 105 27.4 102.7C27.4 99.7 28.7 94.4 31.4 83.4L36.4 62.8L65.8 21.4C74.8 8.6 77.6 5.9 82.4 4.3C84.2 3.7 86.1 3.2 88 3L88.2 2.1ZM163.4 41.8C163.4 12.1 147.4 0 129.8 0C118.4 0 107.1 4.8 96.6 15.4C81.7 30.2 74.1 51.8 74.1 71C74.1 100.1 90 112.9 107.5 112.9C119.1 112.9 130.2 107.8 141.1 97.2C155 83.7 163.4 60.9 163.4 41.8ZM151.5 33C151.5 64.5 137.1 94.2 126.4 103.5C120.3 108.8 114.5 110.6 107.7 110.6C96.8 110.6 86 104.7 86 79.9C86 49.4 99.1 20.8 110.1 10.6C115.4 5.8 121.5 2.3 129.9 2.3C140.2 2.3 151.5 8.4 151.5 33ZM277.8 2.1H251.5L251.4 3C253 3.1 254.5 3.4 256 4C259.3 5.3 261.4 8.4 261.3 11.9C261 16.5 260.2 21 259 25.4L246.4 75.1C241.3 95.4 232.8 110.3 208.7 110.3C196 110.3 187.5 103.4 187.5 91.2C187.4 86.3 188 81.4 189.2 76.7L199.8 32C201.9 23.1 203.6 15 206.6 9.7C208.4 6.9 211.2 4.8 214.4 3.9C215.7 3.5 217 3.2 218.4 3.1L218.6 2.3H184.5L184.1 3C185.6 3.2 187 3.5 188.4 4C191.2 5.2 192.7 6.8 192.7 9.9C192.7 12.9 191.5 19.5 189.1 29.2L179.9 66C178.3 72.4 177.4 78.9 177.1 85.5C177.1 104.2 191.3 112.9 208.2 112.9C231.8 112.9 242.6 100.5 249 75.3L261.7 25.1C264 16.4 266.3 10.2 267.8 8.3C269.3 6.1 271.4 4.5 273.9 3.7C275.1 3.3 276.3 3.1 277.5 3L277.8 2.1ZM432.1 2.1H409.8L351.6 97.2H351.3L338 2.1H316.7L316.5 3C318 3.2 319.5 3.5 321 4C324.5 5.3 325.8 8 325.8 11.3C325.8 15.1 325 18.6 322.8 27.5L306.4 93.2C304.9 99 302.9 102.8 301.3 104.9C299.3 107.4 297.5 108.2 294.7 109C293.3 109.4 291.9 109.7 290.4 109.8L289.9 110.6H316.9L317.2 109.8C315.6 109.7 314 109.4 312.4 109C309.4 108.2 308.1 105.9 308.1 101.6C308.4 97.5 309 93.4 309.9 89.4L327.9 17.1H328.2L341.6 111.3H345.9L404.8 14.9H405.3L389.1 82C387.1 90.9 384.1 100.3 381.7 104.1C380 106.7 377.3 108.6 374.3 109.4C373.2 109.7 372 109.8 370.8 109.9V110.6H405L405.2 109.9C403.7 109.8 402.2 109.4 400.7 108.9C397.7 107.6 396.7 105.3 396.7 102.1C396.7 99.1 397.9 93.4 400.3 83.6L413.2 30.8C415.3 22.1 416.8 13.6 419.8 9C421.5 6.5 424 4.7 426.9 3.9C428.5 3.4 430.2 3.1 431.9 2.9L432.1 2.1ZM474.1 81.9C471.8 90.6 469.6 99.1 466.8 103.9C465.3 106.6 462.7 108.5 459.7 109.2C458.4 109.5 457.2 109.7 455.9 109.9L455.7 110.7H489.8L490 109.9C488.5 109.7 487.1 109.4 485.7 108.9C483.1 107.7 481.4 106.4 481.4 103.1C481.4 100.1 482.9 93.4 485.4 83.6L505.2 2.2H501.9L422.7 95.3C420.6 97.8 414.1 105.4 407.5 108.3C406.1 108.9 404.6 109.4 403 109.8L402.8 110.6H432.4L432.6 109.8C429.5 109.5 428 109.1 426 108C424 106.8 422.8 104.7 422.9 102.4C422.9 98.6 425.5 95.3 428.4 92L448 68.7H477.4L474.1 81.9ZM489.3 19.8H490.1L477.9 66.7H449.6L489.3 19.8ZM601 2.1H575L574.8 3C576 3.1 577.2 3.3 578.4 3.7C580.4 4.2 582 5.2 582 7.5C582 11.1 579.7 15.8 576 20.9L548.1 60.3H547.6L537.6 19C536.6 14.9 535.6 12.1 535.6 9.6C535.6 7.1 537.3 4.8 539.7 4.2C541.3 3.6 543 3.3 544.7 3L544.9 2.2H513L512.8 3C516.6 3.7 521.2 3.7 523.5 12.1L537.1 63.1L531.5 87.7C529.8 94.5 528 100.6 526.2 103.7C524.7 106.2 522.4 108 519.6 108.8C517.9 109.3 516.2 109.7 514.5 109.8L514.3 110.6H548.5L548.7 109.8C546.9 109.5 545.1 109 543.4 108.1C541.3 107.2 540 105.1 540.1 102.8C540.1 99.8 541.4 94.5 544.1 83.5L549.1 62.9L578.5 21.5C587.6 8.6 590.4 6 595.2 4.3C597 3.7 598.9 3.2 600.8 3L601 2.1ZM247.7 214.4H246.9C242.2 221.8 236.4 228.4 229.7 234C225.7 237.1 218.9 240.6 207.9 240.6H200.1C196.3 240.6 194 239.8 192.7 238.3C191.6 236.8 191.1 235 191.2 233.2C191.2 230.4 191.9 227.3 193.3 220.7L207.9 163.1C210.2 154.4 212 146.1 214.2 142C215.8 139.1 218.6 137 221.8 136.2C223.5 135.8 225.2 135.4 226.9 135.2L227.1 134.4H191.9L191.7 135.2C193.2 135.4 194.6 135.7 196 136C199 137 200.3 138.6 200.3 141.9C200.3 144.9 199.1 151.5 196.7 161.2L183.5 214C181.4 222.7 179 231.2 176.4 235.8C174.9 238.5 172.3 240.5 169.3 241.2C167.9 241.5 166.4 241.7 165 241.9L164.8 242.7H236.6L247.7 214.4ZM347 174C347 144.3 331 132.2 313.4 132.2C302 132.2 290.7 137 280.2 147.6C265.3 162.5 257.7 184.1 257.7 203.2C257.7 232.3 273.6 245.1 291.1 245.1C302.7 245.1 313.8 240 324.7 229.4C338.5 215.9 347 193.1 347 174ZM335.1 165.2C335.1 196.7 320.7 226.4 310 235.7C303.9 241 298.1 242.8 291.3 242.8C280.4 242.8 269.6 236.9 269.6 212.1C269.6 181.6 282.7 153 293.7 142.8C299 138 305.1 134.5 313.5 134.5C323.8 134.6 335.1 140.7 335.1 165.2ZM457.4 134.4H427.5L427.3 135.2C429.6 135.3 431.9 136 433.9 137C435.9 138 437.2 140.2 437 142.4C437 145.5 435.7 148.3 431.4 153.5L369.8 227H369.1L384.3 163.3C386.3 155 389.1 145.3 391.6 141.3C393.7 137.8 396.6 136.7 399.2 135.9C400.5 135.6 401.8 135.4 403.2 135.2L403.4 134.4H369L368.8 135.2C370.3 135.3 371.8 135.7 373.3 136.2C376.1 137.4 377.6 139 377.6 142.1C377.6 145.1 376.3 151.7 374 161.4L354 242.8H359.6L438.2 149.4C443.5 143.3 447.3 139 453.2 136.4C454.5 135.8 455.9 135.4 457.3 135.2L457.4 134.4ZM520.3 134.4H457.1L456.9 135.2C461 135.2 465.7 137 465.7 142C465.5 145 464.4 150.4 462.1 160L448.5 214C443.9 231.3 441.6 242.1 429.8 242.1L429.6 242.9H503.9L515.3 212.4H514.3C509.6 220.3 503.6 227.4 496.6 233.4C490.5 238.1 483 240.7 475.3 240.8H464.2C458.7 240.8 455.4 239 455.4 233.2C455.4 230.4 456.1 227.3 457.7 220.8L466.1 187.6H476.8C489.4 187.6 489.9 191.7 489.9 198.7C489.9 200.7 489.7 202.7 489.6 204.6H490.6L499.7 168.5H498.7C494.4 179.7 490.9 185.5 476.5 185.5H466.7L475.8 148.4C477.3 142.3 480.3 136.7 487.7 136.7H498.3C514.8 136.7 517.2 149.9 519.1 161.3H520.1L520.3 134.4ZM609.9 134.4H575.7L575.5 135.2C577 135.3 578.5 135.7 580 136.2C582.6 136.9 584.4 139.4 584.1 142.1C584.1 145.1 582.9 151.5 580.5 161.2L567.4 214.2C565.2 222.9 562.8 231.4 560.1 236C558.6 238.6 556.1 240.6 553.2 241.3C551.7 241.6 550.2 241.8 548.7 242L548.5 242.8H582.9L583.1 242C581.5 241.9 579.9 241.6 578.5 241C575.7 239.8 574.5 238.4 574.5 235.1C574.5 232.1 575.8 226 578.3 216L591.4 163C593.4 154.3 595.2 146 597.8 141.5C599.2 139.3 601.2 137.5 603.6 136.5C605.5 135.6 607.6 135.2 609.7 135.2L609.9 134.4ZM701 134.4H620.1L611.5 159.5H612.5C615.6 154.9 620.9 147.4 627.5 142.3C633.1 138.2 640.2 136.4 647.2 136.4H654.5L635.2 214.1C633 222.8 630.6 231.9 628.1 236.2C626.5 238.8 623.9 240.6 621 241.3C619.6 241.7 618.3 241.9 616.9 242L616.7 242.8H651.1L651.3 242C649.8 241.9 648.4 241.7 647 241.2C643.7 239.9 642.7 238.6 642.7 235.3C642.7 232.3 644 225.1 646.3 215.8L666 136.4H673.1C681.4 136.4 687.2 137.7 691.1 142.3C696.4 148.4 697.1 155 697.7 159.5H698.7L701 134.4Z" clip-rule="evenodd" fill-rule="evenodd"></path>
</g>
<defs>
<clipPath id="clip0">
<rect fill="white" height="245.1" width="701"></rect>
</clipPath>
</defs>
</svg>
