<svg xmlns="http://www.w3.org/2000/svg" fill="none" viewBox="0 0 500 85" height="85" width="500">
<path fill="black" d="M69.4659 65.9976L69.2554 33.1592C69.2554 28.2475 68.7642 24.0725 67.7819 20.6343C66.7996 17.1961 65.1155 14.4245 62.7298 12.3194C60.3441 10.2144 57.362 8.95138 53.7835 8.53037C53.6431 8.53037 53.5028 8.49529 53.3625 8.42512C53.2923 8.35496 53.2923 8.28479 53.3625 8.21462C53.5028 8.07428 53.6431 8.00412 53.7835 8.00412C59.046 8.00412 63.5368 7.86378 67.2556 7.58311C71.0447 7.23227 74.4127 6.56568 77.3598 5.58333C77.5703 5.51317 77.7106 5.58334 77.7808 5.79384C77.9211 5.93417 77.8509 6.03942 77.5703 6.10959C76.1669 6.46043 74.9039 7.37261 73.7812 8.84613C72.6585 10.2495 71.7113 12.6001 70.9394 15.898C70.1676 19.1257 69.7817 24.7742 69.7817 32.8434C69.7817 47.6488 69.8168 58.1389 69.8869 64.3136C70.0273 70.4182 70.2728 76.8736 70.6237 83.6799C70.6939 84.1009 70.6237 84.3114 70.4132 84.3114C70.2027 84.3815 70.0273 84.3114 69.8869 84.1009C63.0807 74.9089 53.3274 62.805 40.627 47.7891C28.6284 33.5451 19.682 23.3708 13.7879 17.2662C13.7178 20.2834 13.7178 26.9844 13.7879 37.3692C13.9283 47.6839 13.9984 53.8236 13.9984 55.7882C13.9984 60.9806 14.4896 65.2609 15.472 68.6289C16.5245 71.997 18.2085 74.7335 20.524 76.8385C22.8396 78.9436 25.6813 80.382 29.0494 81.1538C29.4002 81.224 29.5406 81.3643 29.4704 81.5748C29.4002 81.7152 29.2599 81.7503 29.0494 81.6801C25.3305 81.1187 21.2608 80.8732 16.8402 80.9433C12.4197 81.0135 8.42011 81.3643 4.84156 81.9958C4.56089 82.066 4.38547 81.9958 4.31531 81.7853C4.24514 81.645 4.35039 81.5398 4.63106 81.4696C6.73609 80.9082 8.42011 79.7505 9.68313 77.9963C10.9461 76.1719 11.8934 73.7511 12.5249 70.7339C13.1564 67.6466 13.4722 62.6647 13.4722 55.7882C13.4722 37.3342 13.3318 25.967 13.0512 21.6868C12.7705 17.5469 11.2268 14.3543 8.42011 12.1089C7.08693 11.0564 5.68357 10.2144 4.21006 9.58288C2.8067 8.88121 1.54369 8.53037 0.421005 8.53037C0.140335 8.53037 0 8.4602 0 8.31987C0 8.10937 0.140335 8.00412 0.421005 8.00412C6.31508 8.00412 11.5777 7.30244 16.2087 5.89909C16.7701 5.75875 17.1911 5.72367 17.4717 5.79384C17.7524 5.79384 17.998 6.03943 18.2085 6.5306C21.6467 11.6528 31.1544 23.3708 46.7316 41.6846C56.2744 52.9114 63.8525 61.0157 69.4659 65.9976Z"></path>
<path fill="black" d="M122.036 74.944V71.0497C119.369 74.6282 116.317 77.47 112.879 79.5751C109.441 81.6801 106.108 82.7326 102.88 82.7326C98.3892 82.7326 94.8808 81.224 92.3548 78.2068C89.8288 75.1194 88.5658 70.8743 88.5658 65.4714L88.671 53.6832C88.671 52.771 88.6359 51.1923 88.5658 48.9469C88.5658 46.7015 88.4605 43.9299 88.25 40.632C88.1097 37.264 87.5834 34.7731 86.6712 33.1592C85.8292 31.4752 84.3908 30.6332 82.3559 30.6332C82.1454 30.6332 82.0402 30.563 82.0402 30.4227C82.0402 30.2122 82.1454 30.1069 82.3559 30.1069C85.0925 30.1069 87.8641 29.8262 90.6708 29.2649C93.4775 28.6334 95.6176 27.8265 97.0911 26.8441C97.7226 26.4231 97.9682 26.5634 97.8279 27.2651C97.4069 33.089 97.1964 42.281 97.1964 54.841L97.6174 62.5243C98.1085 68.1377 99.3014 72.1724 101.196 74.6282C103.09 77.0841 105.722 78.312 109.09 78.312C113.721 78.312 118.036 75.6457 122.036 70.3129L122.246 54.841C122.246 48.4557 122.106 43.6142 121.825 40.3163C121.545 37.0184 120.983 34.5976 120.141 33.0539C119.299 31.4401 117.861 30.6332 115.826 30.6332C115.545 30.6332 115.405 30.563 115.405 30.4227C115.405 30.2823 115.545 30.1771 115.826 30.1069C118.633 30.1069 121.229 29.9315 123.614 29.5806C126.07 29.1596 128.351 28.2825 130.456 26.9494C130.596 26.8792 130.772 26.809 130.982 26.7389C131.263 26.5985 131.403 26.809 131.403 27.3704C130.982 33.1943 130.772 42.3512 130.772 54.841C130.772 58.9107 130.807 62.5594 130.877 65.7871C131.017 68.9447 131.263 71.4005 131.614 73.1547C131.964 74.9089 132.456 76.3824 133.087 77.5753C133.789 78.7681 135.297 79.7154 137.613 80.4171C137.823 80.4872 137.929 80.5925 137.929 80.7328C137.929 80.8732 137.823 80.9433 137.613 80.9433C131.789 80.9433 127.018 81.3643 123.299 82.2063C122.737 82.2765 122.422 82.0309 122.351 81.4696C122.141 80.2767 122.036 78.1015 122.036 74.944Z"></path>
<path fill="black" d="M158.999 38.0008V37.4745C158.859 41.8951 158.789 47.719 158.789 54.9462C158.789 65.0504 158.999 71.7514 159.42 75.0492C159.912 78.3471 160.999 80.382 162.683 81.1538C162.894 81.224 162.999 81.3292 162.999 81.4696C162.999 81.6099 162.894 81.6801 162.683 81.6801C156.088 80.9082 150.158 80.9784 144.896 81.8906C144.615 81.9608 144.44 81.8906 144.37 81.6801C144.37 81.5398 144.545 81.4345 144.896 81.3643C146.86 80.9433 148.124 79.8908 148.685 78.2068C149.246 76.4526 149.632 73.9617 149.843 70.7339C150.123 67.4361 150.264 62.1735 150.264 54.9462V50.3152C150.264 48.0698 150.158 45.228 149.948 41.7898C149.737 38.3516 149.176 35.6501 148.264 33.6855C147.422 31.6506 145.983 30.6332 143.949 30.6332C143.668 30.6332 143.528 30.563 143.528 30.4227C143.528 30.2122 143.668 30.1069 143.949 30.1069C146.404 30.1069 149.036 29.8262 151.842 29.2649C154.719 28.6334 157 27.7914 158.684 26.7389C159.245 26.388 159.491 26.5634 159.42 27.2651L158.999 37.1588C161.526 33.8609 164.297 31.2998 167.314 29.4754C170.402 27.5809 173.384 26.6336 176.261 26.6336C177.734 26.6336 179.313 26.9845 180.997 27.6861C182.751 28.3176 184.295 29.5456 185.628 31.3699C187.031 33.1241 187.979 35.159 188.47 37.4745C191.347 33.9661 194.294 31.2998 197.311 29.4754C200.328 27.5809 203.205 26.6336 205.942 26.6336C210.152 26.6336 213.344 28.0721 215.519 30.9489C217.765 33.7556 218.888 37.7903 218.888 43.0528C218.888 54.0691 218.923 61.3315 218.993 64.8399C219.133 68.2781 219.414 71.0146 219.835 73.0495C220.256 75.0142 220.852 76.628 221.624 77.891C222.466 79.0839 223.764 79.9259 225.518 80.4171C225.729 80.4872 225.834 80.5925 225.834 80.7328C225.834 80.8732 225.729 80.9433 225.518 80.9433C221.308 80.7328 216.642 81.1538 211.52 82.2063C210.888 82.2765 210.538 81.9608 210.467 81.2591C210.257 80.2066 210.152 78.0665 210.152 74.8387C210.152 73.3652 210.187 69.9972 210.257 64.7346C210.327 59.472 210.327 55.4725 210.257 52.736C210.187 49.9994 210.081 47.7541 209.941 45.9999C209.169 36.2466 205.661 31.3699 199.416 31.3699C197.943 31.3699 196.223 31.8611 194.259 32.8434C192.364 33.7556 190.47 35.5449 188.575 38.2113C188.856 39.4041 188.996 40.8776 188.996 42.6318L188.891 56.4198C188.68 64.6294 188.821 70.6287 189.312 74.4177C189.803 78.1366 191.241 80.382 193.627 81.1538C193.768 81.224 193.838 81.3643 193.838 81.5748C193.838 81.7152 193.697 81.7503 193.417 81.6801C190.891 81.2591 187.873 81.0486 184.365 81.0486C180.927 81.0486 177.875 81.3292 175.208 81.8906C174.928 81.9608 174.787 81.8906 174.787 81.6801C174.787 81.5398 174.928 81.4345 175.208 81.3643C176.752 80.9433 177.839 80.0311 178.471 78.6278C179.173 77.1543 179.664 74.7335 179.945 71.3655C180.225 67.9272 180.366 62.9103 180.366 56.3145C180.366 52.1746 180.225 48.3505 179.945 44.8421C179.594 40.7022 178.541 37.4043 176.787 34.9485C175.033 32.4224 172.752 31.1594 169.946 31.1594C165.876 31.1594 162.227 33.4399 158.999 38.0008Z"></path>
<path fill="black" d="M242.888 75.5755C239.59 77.5402 236.994 79.6452 235.1 81.8906C234.959 82.1011 234.819 82.1713 234.679 82.1011C234.538 82.0309 234.538 81.8555 234.679 81.5748C235.521 80.3118 236.082 78.5576 236.363 76.3123C236.643 73.9967 236.784 64.5592 236.784 47.9996C236.784 35.2993 236.643 26.0723 236.363 20.3185C236.152 14.4946 235.661 10.3898 234.889 8.00412C234.117 5.54825 232.644 4.32032 230.468 4.32032C230.188 4.32032 230.047 4.25015 230.047 4.10981C230.047 3.89931 230.188 3.79406 230.468 3.79406C232.995 3.79406 235.591 3.51339 238.257 2.95205C240.994 2.32054 243.309 1.51362 245.204 0.531269C245.555 0.320765 245.8 0.250596 245.94 0.320763C246.081 0.320763 246.116 0.531267 246.046 0.952276L245.309 35.7905C247.624 33.1943 250.431 31.0191 253.729 29.2649C257.097 27.5107 260.605 26.6336 264.254 26.6336C266.991 26.6336 269.657 27.23 272.253 28.4229C274.92 29.6157 277.27 31.3699 279.305 33.6855C281.41 36.001 283.059 38.8428 284.252 42.2108C285.515 45.5087 286.146 49.1223 286.146 53.0517C286.146 57.3319 285.375 61.3315 283.831 65.0504C282.357 68.6991 280.323 71.8566 277.726 74.523C275.13 77.1192 272.183 79.154 268.885 80.6276C265.587 82.0309 262.254 82.7326 258.886 82.7326C256.851 82.7326 254.746 82.4168 252.571 81.7853C250.466 81.224 248.572 80.382 246.888 79.2593C245.274 78.0665 243.941 76.8385 242.888 75.5755ZM245.309 36.5272V45.4736C245.379 54.4551 246.151 61.2262 247.624 65.7871C248.537 68.7342 250.01 71.4356 252.045 73.8915C254.08 76.2772 256.045 77.9261 257.939 78.8383C259.904 79.7505 261.377 80.2767 262.36 80.4171C263.342 80.4872 264.009 80.5223 264.359 80.5223C268.64 80.5223 272.008 79.0839 274.464 76.207C276.99 73.3301 278.253 69.0499 278.253 63.3663C278.253 59.6475 277.691 55.8233 276.569 51.8939C275.516 47.8944 274.007 44.2457 272.043 40.9478C270.148 37.6499 267.938 35.0186 265.412 33.0539C262.886 31.0191 260.29 30.0017 257.623 30.0017C255.448 30.0017 253.273 30.5981 251.098 31.7909C248.923 32.9136 246.993 34.4924 245.309 36.5272Z"></path>
<path fill="black" d="M303.866 52.5255C304.357 55.8935 305.199 59.0861 306.392 62.1033C307.655 65.1205 309.234 67.7869 311.128 70.1024C313.023 72.3478 315.198 74.102 317.654 75.365C320.18 76.628 322.846 77.2595 325.653 77.2595C328.249 77.2595 330.705 76.7684 333.02 75.786C335.406 74.7335 337.23 73.4354 338.493 71.8917C338.634 71.6812 338.774 71.611 338.914 71.6812C339.125 71.7514 339.125 71.9268 338.914 72.2075C336.038 75.365 332.775 77.9261 329.126 79.8908C325.547 81.7853 321.899 82.7326 318.18 82.7326C316.777 82.7326 315.128 82.5221 313.233 82.1011C311.409 81.6801 309.549 80.8732 307.655 79.6803C305.76 78.4875 303.901 76.8385 302.076 74.7335C300.322 72.5583 298.849 69.7867 297.656 66.4186C296.533 63.0506 295.972 59.4019 295.972 55.4725C295.972 50.9818 296.744 46.912 298.287 43.2633C299.831 39.5444 301.866 36.4922 304.392 34.1065C306.918 31.6506 309.69 29.7912 312.707 28.5281C315.794 27.2651 318.776 26.6336 321.653 26.6336C323.407 26.6336 325.302 26.9845 327.337 27.6861C329.442 28.3176 331.442 29.4403 333.336 31.0542C335.231 32.668 336.88 34.8432 338.283 37.5798C339.756 40.2461 340.563 43.4387 340.704 47.1576L340.388 47.5786C338.213 47.9996 333.02 48.8066 324.811 49.9994C316.671 51.1221 309.69 51.9641 303.866 52.5255ZM303.76 51.9992C311.76 51.1572 319.373 50.1748 326.6 49.0522C327.863 48.8417 328.81 48.4557 329.442 47.8944C330.143 47.333 330.284 45.9648 329.863 43.7896C329.512 42.0354 328.81 40.0356 327.758 37.7903C326.705 35.4747 325.091 33.4399 322.916 31.6857C320.811 29.8613 318.425 28.9491 315.759 28.9491C311.83 28.9491 308.777 30.3876 306.602 33.2645C304.427 36.1413 303.339 40.2461 303.339 45.5789C303.339 47.9646 303.48 50.1047 303.76 51.9992Z"></path>
<path fill="black" d="M361.891 48.2101V54.841C361.891 63.4014 361.997 69.1903 362.207 72.2075C362.488 75.2247 362.979 77.3999 363.681 78.733C364.452 79.9961 365.68 80.803 367.364 81.1538C367.575 81.224 367.645 81.3643 367.575 81.5748C367.575 81.7152 367.47 81.7503 367.259 81.6801C364.452 81.3293 361.295 81.1538 357.786 81.1538C354.278 81.0837 350.945 81.3292 347.788 81.8906C347.577 81.9608 347.472 81.8906 347.472 81.6801C347.472 81.5398 347.577 81.4345 347.788 81.3643C349.331 80.9433 350.349 80.382 350.84 79.6803C351.401 78.9085 351.822 77.891 352.103 76.628C352.454 75.2948 352.734 73.1898 352.945 70.3129C353.226 67.3659 353.366 62.2086 353.366 54.841V49.8942C353.366 47.5085 353.261 44.5965 353.05 41.1583C352.84 37.6499 352.278 35.0186 351.366 33.2645C350.524 31.5103 349.086 30.6332 347.051 30.6332C346.84 30.6332 346.735 30.563 346.735 30.4227C346.735 30.2122 346.84 30.1069 347.051 30.1069C349.366 30.1069 351.927 29.8613 354.734 29.3701C357.611 28.8088 359.962 27.9668 361.786 26.8441C361.856 26.7739 361.997 26.7038 362.207 26.6336C362.418 26.5634 362.523 26.7739 362.523 27.2651C362.102 34.8432 361.891 41.2986 361.891 46.6314C364.347 40.1058 367.575 35.0537 371.574 31.4752C375.574 27.8966 379.679 26.2828 383.889 26.6336C384.169 26.6336 384.31 26.809 384.31 27.1599C384.31 32.9136 384.731 37.8604 385.573 42.0003C385.643 42.0705 385.608 42.1406 385.468 42.2108C385.397 42.281 385.327 42.281 385.257 42.2108C384.275 40.0356 382.942 38.3516 381.258 37.1588C379.644 35.9659 377.819 35.3695 375.784 35.3695C372.767 35.3695 369.996 36.4571 367.47 38.6323C365.014 40.8075 363.154 44.0001 361.891 48.2101Z"></path>
<path fill="black" d="M397.502 52.5255C397.994 55.8935 398.836 59.0861 400.028 62.1033C401.291 65.1205 402.87 67.7869 404.765 70.1024C406.659 72.3478 408.834 74.102 411.29 75.365C413.816 76.628 416.483 77.2595 419.289 77.2595C421.886 77.2595 424.342 76.7684 426.657 75.786C429.043 74.7335 430.867 73.4354 432.13 71.8917C432.27 71.6812 432.411 71.611 432.551 71.6812C432.762 71.7514 432.762 71.9268 432.551 72.2075C429.674 75.365 426.411 77.9261 422.763 79.8908C419.184 81.7853 415.535 82.7326 411.817 82.7326C410.413 82.7326 408.764 82.5221 406.87 82.1011C405.045 81.6801 403.186 80.8732 401.291 79.6803C399.397 78.4875 397.538 76.8385 395.713 74.7335C393.959 72.5583 392.485 69.7867 391.293 66.4186C390.17 63.0506 389.609 59.4019 389.609 55.4725C389.609 50.9818 390.38 46.912 391.924 43.2633C393.468 39.5444 395.503 36.4922 398.029 34.1065C400.555 31.6506 403.326 29.7912 406.344 28.5281C409.431 27.2651 412.413 26.6336 415.29 26.6336C417.044 26.6336 418.939 26.9845 420.973 27.6861C423.079 28.3176 425.078 29.4403 426.973 31.0542C428.867 32.668 430.516 34.8432 431.92 37.5798C433.393 40.2461 434.2 43.4387 434.34 47.1576L434.025 47.5786C431.849 47.9996 426.657 48.8066 418.447 49.9994C410.308 51.1221 403.326 51.9641 397.502 52.5255ZM397.397 51.9992C405.396 51.1572 413.009 50.1748 420.237 49.0522C421.5 48.8417 422.447 48.4557 423.078 47.8944C423.78 47.333 423.921 45.9648 423.5 43.7896C423.149 42.0354 422.447 40.0356 421.394 37.7903C420.342 35.4747 418.728 33.4399 416.553 31.6857C414.448 29.8613 412.062 28.9491 409.396 28.9491C405.466 28.9491 402.414 30.3876 400.239 33.2645C398.064 36.1413 396.976 40.2461 396.976 45.5789C396.976 47.9646 397.116 50.1047 397.397 51.9992Z"></path>
<path fill="black" d="M484.528 72.3127C482.072 75.6106 479.09 78.1717 475.582 79.9961C472.143 81.8204 468.53 82.7326 464.741 82.7326C461.864 82.7326 459.092 82.0309 456.426 80.6276C453.76 79.154 451.409 77.1543 449.374 74.6282C447.339 72.032 445.76 69.085 444.638 65.7871C443.515 62.4191 442.954 58.9809 442.954 55.4725C442.954 51.8939 443.515 48.3505 444.638 44.8421C445.831 41.3337 447.655 38.2463 450.111 35.58C452.567 32.8434 455.479 30.6682 458.847 29.0544C462.285 27.4405 465.758 26.6336 469.267 26.6336C472.494 26.6336 475.547 27.3353 478.423 28.7386C481.3 30.0718 483.265 31.4752 484.318 32.9487C484.247 25.3004 484.037 19.5116 483.686 15.5822C483.405 11.5827 482.844 8.70579 482.002 6.9516C481.23 5.19741 479.897 4.32032 478.002 4.32032C477.722 4.32032 477.581 4.25015 477.581 4.10981C477.581 3.89931 477.722 3.79406 478.002 3.79406C484.879 3.79406 489.72 2.6363 492.527 0.320763C493.159 -0.240574 493.439 -0.0651537 493.369 0.847026C493.018 6.81127 492.843 20.7045 492.843 42.5266C492.843 50.1047 492.913 56.1391 493.053 60.6298C493.194 65.1205 493.439 68.7692 493.79 71.576C494.211 74.3125 494.808 76.3473 495.579 77.6805C496.421 78.9435 497.79 79.8557 499.684 80.4171C499.895 80.4872 500 80.5925 500 80.7328C500 80.8732 499.895 80.9433 499.684 80.9433C494.913 80.9433 490.282 81.3643 485.791 82.2063C485.23 82.2765 484.914 81.9958 484.844 81.3643C484.633 79.7505 484.528 76.7333 484.528 72.3127ZM484.528 71.3655L484.739 61.6823C484.739 54.6656 484.072 49.0522 482.739 44.8421C481.265 40.3514 478.809 36.5974 475.371 33.5802C472.003 30.4928 468.144 28.9491 463.794 28.9491C459.513 28.9491 456.18 30.3876 453.795 33.2645C451.409 36.0712 450.216 39.8602 450.216 44.6316C450.216 48.7013 450.953 52.9114 452.426 57.2618C453.9 61.6122 455.689 65.4012 457.794 68.6289C459.969 71.7865 462.285 74.102 464.741 75.5755C467.197 77.049 469.582 77.7858 471.898 77.7858C474.213 77.7858 476.529 77.2595 478.844 76.207C481.23 75.1545 483.125 73.5406 484.528 71.3655Z"></path>
</svg>
