<svg xmlns="http://www.w3.org/2000/svg" width="435" viewBox="0 0 435 277" height="277" fill="none"><path fill="#fff" d="m0 0h435v277h-435z"></path><path fill="#fff" d="m0 0h435v277h-435z"></path><path fill-rule="evenodd" fill="#000" d="m119.098 157.249v-1.361c-1.017-.201-1.924-.775-2.543-1.608-.575-1.131-.828-2.398-.731-3.664v-36.249c0-2.372.243-3.878.731-4.519.487-.64 1.405-.96 2.751-.959 2.376.055 4.679.834 6.602 2.232 2.298 1.6 4.218 3.684 5.626 6.106l1.568-.488-1.953-11.583h-42.5713l-2.5777 11.584 1.4979.489c1.9331-2.371 4.2395-4.41 6.8282-6.036 2.4848-1.535 4.6098-2.302 6.3749-2.302 1.208 0 2.021.343 2.439 1.029.418.687.627 2.391.627 5.112v35.587c.096 1.266-.157 2.533-.731 3.664-.62.833-1.526 1.407-2.543 1.608v1.361h18.605zm19.209 6.421c-.414 1.159-.963 2.264-1.637 3.293-.154.273-.369.505-.63.678-.26.173-.558.282-.868.318-.147 0-.292-.043-.415-.124-.124-.08-.222-.195-.282-.33-.185-.415-.27-.868-.245-1.322.001-.128.013-.256.035-.383.023-.139.035-.221.035-.244.014-.529-.079-1.055-.274-1.547-.195-.491-.487-.938-.859-1.314-.357-.372-.788-.667-1.264-.864-.477-.198-.989-.295-1.505-.285-.68-.021-1.357.097-1.99.347-.633.249-1.208.626-1.691 1.106-.482.481-.862 1.055-1.116 1.687-.254.633-.376 1.311-.359 1.992-.016.861.162 1.715.521 2.497.358.783.889 1.474 1.551 2.022 1.478 1.232 3.358 1.872 5.278 1.797 1.31.009 2.604-.287 3.78-.865s2.201-1.423 2.996-2.467c1.822-2.222 3.663-6.24 5.521-12.055l8.605-27.215c.585-1.983 1.41-3.886 2.456-5.668.645-1.174 1.637-2.119 2.84-2.704v-1.372h-11.289v1.361c.782.435 1.432 1.074 1.882 1.849.434.815.65 1.729.626 2.652.001.823-.051 1.644-.156 2.46-.096.762-.253 1.514-.47 2.25l-4.808 15.457-6.549-19.853c-.153-.427-.275-.864-.367-1.308-.078-.373-.118-.753-.122-1.134-.02-.491.12-.975.401-1.379.371-.438.843-.78 1.375-.995v-1.36h-14.56v1.361c.765.07 1.531.687 2.3 1.849 1.001 1.67 1.808 3.449 2.404 5.304l10.554 30.076zm32.708-35.136c.701-.715 1.536-1.284 2.456-1.675.947-.382 1.96-.572 2.981-.558 1.136-.05 2.259.259 3.212.881.953.623 1.687 1.528 2.101 2.59 1.056 2.315 1.584 6.31 1.585 11.986 0 4.745-.488 8.217-1.464 10.416-.975 2.2-2.531 3.297-4.668 3.294-1.012.042-2.012-.23-2.863-.78s-1.512-1.35-1.892-2.291c-.964-2.046-1.446-5.501-1.446-10.362v-13.501zm2.3 44.452v-1.364c-.392-.043-.766-.181-1.092-.403-.325-.222-.59-.522-.772-.871-.337-.687-.505-2.39-.505-5.112v-9.626c.968.867 2.091 1.542 3.31 1.991 1.297.457 2.665.681 4.041.663 4.342 0 7.82-1.943 10.434-5.827 2.613-3.884 3.919-9.118 3.918-15.702 0-5.187-.975-9.315-2.926-12.386-1.951-3.07-4.552-4.605-7.803-4.605-1.819.049-3.602.521-5.208 1.378-2.1 1.097-4.04 2.477-5.766 4.1v-5.481h-1.708c-1.245 1.551-2.754 2.868-4.458 3.891-1.802 1.067-3.768 1.827-5.818 2.25v1.5c.478.104.929.308 1.323.6.393.292.72.664.959 1.092.429.826.644 2.518.644 5.077v31.751c0 2.349-.162 3.844-.487 4.484-.186.333-.446.619-.76.834-.315.215-.675.353-1.052.405v1.36h13.726zm34.056-47.642c.379-.905 1.02-1.676 1.839-2.213.819-.538 1.78-.818 2.76-.805.881-.033 1.756.152 2.549.538.793.387 1.479.963 1.997 1.678 1.103 1.477 1.654 3.519 1.654 6.124 0 1.583-.307 2.612-.923 3.088-.615.476-2.281.715-4.998.716h-6.412c0-4.074.512-7.117 1.535-9.129zm14.579 25.191c-1.604.764-3.362 1.152-5.138 1.134-3.414 0-6.055-1.192-7.925-3.576-1.87-2.385-2.864-5.833-2.981-10.345h21.184c-.094-5.464-1.504-9.831-4.233-13.102-1.295-1.589-2.939-2.858-4.803-3.708s-3.898-1.258-5.945-1.194c-2.206-.019-4.387.468-6.377 1.424-1.989.956-3.734 2.355-5.101 4.091-3.101 3.677-4.651 8.271-4.651 13.782 0 5.722 1.544 10.357 4.633 13.904 1.49 1.736 3.35 3.115 5.442 4.036s4.363 1.36 6.647 1.285c2.965.01 5.863-.885 8.309-2.565 2.802-1.994 5.128-4.586 6.811-7.588l-1.359-1.082c-1.266 1.446-2.798 2.635-4.512 3.502zm23.866 7.205 6.48-23.656 7.072 23.656h5.4l8.778-28.718c.469-1.663 1.148-3.258 2.021-4.749.551-.984 1.39-1.776 2.403-2.268v-1.357h-10.032v1.361c.632.442 1.156 1.02 1.533 1.692.357.671.536 1.421.523 2.181 0 .538-.041 1.076-.122 1.608-.087.557-.221 1.106-.401 1.64l-4.981 17.411-5.4-19.574c-.138-.504-.248-1.015-.331-1.532-.072-.415-.113-.835-.122-1.256-.027-.462.095-.921.349-1.308.308-.373.701-.666 1.146-.855v-1.368h-13.549v1.361c.967.472 1.8 1.18 2.422 2.059.617 1.011 1.014 2.14 1.167 3.315l.139.873-4.877 18.283-5.609-20.375c-.094-.327-.171-.659-.229-.995-.053-.282-.082-.568-.087-.855-.009-.472.099-.94.314-1.36.195-.38.482-.704.836-.942v-1.364h-13.689v1.361c.802.316 1.463.911 1.864 1.675.751 1.296 1.341 2.678 1.757 4.117l9.72 29.937h5.503zm52.495-31.96c.917 2.256 1.375 6.653 1.375 13.189 0 6.513-.458 10.915-1.375 13.206s-2.537 3.437-4.86 3.437c-2.253 0-3.838-1.169-4.756-3.507-.917-2.337-1.376-6.716-1.375-13.136 0-6.397.458-10.758 1.375-13.085.917-2.326 2.503-3.489 4.756-3.489 1.067-.044 2.119.263 2.997.873.877.611 1.532 1.492 1.863 2.509zm-19.839 21.178c1.035 2.544 2.562 4.856 4.494 6.804 1.403 1.417 3.057 2.56 4.877 3.37 1.772.762 3.681 1.148 5.609 1.134 1.933.008 3.847-.378 5.626-1.134 1.85-.805 3.535-1.947 4.967-3.37 3.886-3.939 6.064-9.255 6.062-14.794 0-5.629-1.528-10.252-4.585-13.869-1.385-1.727-3.145-3.114-5.147-4.055-2.001-.94-4.191-1.409-6.401-1.371-2.302-.023-4.581.464-6.673 1.425-2.093.962-3.948 2.375-5.432 4.138-3.32 3.732-5.096 8.592-4.968 13.59-.014 2.788.52 5.551 1.571 8.132zm48.547 10.291v-1.361c-.372-.033-.729-.159-1.039-.366-.311-.208-.564-.489-.738-.82-.326-.651-.488-2.163-.488-4.536v-46.161h-2.298c-1.231 1.558-2.736 2.877-4.442 3.89-1.808 1.066-3.78 1.826-5.835 2.251v1.502c.483.109.938.32 1.334.617.397.298.725.676.965 1.111.418.825.627 2.517.627 5.076v31.714c0 2.373-.162 3.885-.487 4.536-.174.33-.428.612-.738.819-.311.208-.668.334-1.039.367v1.361zm18.487 0v-1.361c-.377-.03-.74-.154-1.057-.361-.316-.208-.576-.491-.755-.825-.325-.651-.488-2.163-.487-4.536v-25.854h6.793v-3.664h-6.932l-.802-1.64c-2.926-6.071-4.389-9.501-4.39-10.292-.006-.236.035-.471.122-.69s.218-.418.384-.584c.166-.167.365-.298.584-.384.218-.087.452-.129.687-.122.674 0 1.301.78 1.882 2.338l.034.105c.412 1.298 1.075 2.501 1.951 3.542.319.333.704.596 1.13.772.426.177.883.263 1.344.253.444-.003.882-.095 1.289-.272s.775-.435 1.08-.757c.324-.294.584-.652.764-1.051s.275-.831.281-1.269c-.02-.912-.255-1.805-.684-2.609-.43-.803-1.043-1.493-1.789-2.014-1.663-1.319-3.733-2.017-5.853-1.972-2.741 0-4.901.762-6.48 2.286-.806.815-1.433 1.79-1.841 2.863-.408 1.072-.588 2.218-.528 3.364.013 1.194.123 2.384.331 3.559.22 1.328.562 2.851 1.027 4.571h-5.574v3.664h5.644v25.229c0 2.722-.168 4.426-.505 5.112-.18.348-.446.644-.772.861-.326.216-.702.346-1.092.377v1.361z" clip-rule="evenodd"></path></svg>